# xmcd
# 
# Track frame offsets:
#     150
#     18346
#     30499
#     51418
#     68044
#     86226
#     98379
#     119300
# 
# Disc length: 1809
# 
# Revision: 0
# Processed by: cddbd v1.5.2PL0 Copyright (c) Steve Scherf et al.
# Submitted via: fre:ac v1.0.17
# 
DISCID=5d070f08
DTITLE=特撮 - シネマタイズ(映画化)
DYEAR=2014
DGENRE=Rock
TTITLE0=シネマタイズ (映画化)
TTITLE1=世界中のロックバンドが今夜も…
TTITLE2=一点もの
TTITLE3=ハンマーはトントン
TTITLE4=シネマタイズ (映画化) (off vocal ver.)
TTITLE5=世界中のロックバンドが今夜も… (off vocal ver.)
TTITLE6=一点もの (off vocal ver.)
TTITLE7=ハンマーはトントン (off vocal ver.)
EXTD=
EXTT0=
EXTT1=
EXTT2=
EXTT3=
EXTT4=
EXTT5=
EXTT6=
EXTT7=
PLAYORDER=
